    <svg
        xmlns="http://www.w3.org/2000/svg"
        width="904"
        height="423"
        fill="none"
      >
        <path
          fillRule="evenodd"
          d="M14.328 113.439L.888 147.074v64.346 64.026l13.44 33.635c13.44 32.173 41.54 96.519 68.42 96.519 15.626 0 30.873-19.895 45.953-39.571 12.04-15.71 23.973-31.28 35.906-36.474 19.448-7.084 38.31 11.747 57.398 30.803 8.493 8.478 17.03 17.002 25.683 23.306 26.879 21.936 53.758 21.936 81.859-4.387 10.859-11.225 21.916-26.745 33.012-42.319 16.372-22.979 32.826-46.074 48.847-55.662 23.649-14.153 48.243 1.126 72.119 15.958l9.74 5.978c26.879 16.086 54.98 26.323 81.859 21.936 7.008-1.459 13.941-3.918 20.816-6.357 20.692-7.341 40.868-14.499 61.043 6.357 10.718 10.039 21.257 27.311 31.755 44.513 17.027 27.903 33.943 55.624 51.326 52.006 15.85-2.587 31.7-34.159 47.8-66.229 11.204-22.316 22.529-44.874 34.059-58.076 26.616-31.857 54.43-10.661 68.021-.304l.399.304 13.44 11.699V211.42v-.32-97.661l-13.44 11.699-.399.304c-13.591 10.358-41.405 31.554-68.021-.304-11.53-13.201-22.855-35.759-34.059-58.076-16.1-32.07-31.95-63.641-47.8-66.228-17.383-3.619-34.299 24.102-51.326 52.005-10.498 17.203-21.037 34.474-31.755 44.514-20.175 20.856-40.351 13.698-61.043 6.357-6.875-2.439-13.808-4.899-20.816-6.357-26.879-4.387-54.98 5.849-81.859 21.936l-9.74 5.977c-23.876 14.833-48.47 30.112-72.119 15.959-16.02-9.588-32.475-32.684-48.847-55.662-11.096-15.574-22.153-31.095-33.012-42.319-28.101-26.323-54.98-26.323-81.859-4.387-8.653 6.304-17.19 14.828-25.683 23.307-19.088 19.056-37.95 37.887-57.398 30.803-11.933-5.194-23.866-20.764-35.906-36.474C113.62 36.816 98.373 16.92 82.747 16.92c-26.879 0-54.98 64.346-68.419 96.519z"
          fill="#a66a6a"
        />
      </svg>